# xmcd
#
# Track frame offsets:
#	150
#	12576
#	27772
#	43969
#	59016
#	76207
#	90498
#	108910
#	123647
#	135875
#	148725
#	168608
#	182971
#	197467
#	212214
#	227173
#	243167
#	260413
#	277638
#
# Disc length: 3875 seconds
#
# Revision: 1
# Processed by: cddbd v1.5.2PL0 Copyright (c) Steve Scherf et al.
# Submitted via: audiograbber 1.83.01
#
DISCID=0a0f2113
DTITLE=Various Artist - CDX 644
DYEAR=2017
DGENRE=Country
TTITLE0=Sam Hunt - Body Like A Back Road
TTITLE1=Big and Rich - California
TTITLE2=Blake Shelton - Every Time I Hear That Song
TTITLE3=Aubrie Sellers - LIAR LIAR
TTITLE4=Zac Brown Band - My Old Man
TTITLE5=Rachel Holder - You Only Call Me When You're Drunk
TTITLE6=Frankie Ballard - You'll Accompny Me
TTITLE7=Jacob Davis - What I Wanna Be
TTITLE8=Amy Jack - Bounce Back
TTITLE9=Coffey Anderson - Bud Light Blue
TTITLE10=Sarah Dunn Band - Figure It Out
TTITLE11=Kenny Davin Fine - Gotta Be Good
TTITLE12=Tony Jackson - The Grand Tour
TTITLE13=Smith and Wesley - The Little Things
TTITLE14=Robbie Robinson - This Is The Life
TTITLE15=Rick Monroe - This Side Of You
TTITLE16=Simba Jordan (w. Lorrie Morgan) - Goodbye Eyesmaster
TTITLE17=Dan Washburn - We Were Almost Love
TTITLE18=Dave McElroy - Without You
EXTD=
EXTT0=
EXTT1=
EXTT2=
EXTT3=
EXTT4=
EXTT5=
EXTT6=
EXTT7=
EXTT8=
EXTT9=
EXTT10=
EXTT11=
EXTT12=
EXTT13=
EXTT14=
EXTT15=
EXTT16=
EXTT17=
EXTT18=
PLAYORDER=
